<svg width="38" height="39" viewBox="0 0 38 39" fill="none" xmlns="http://www.w3.org/2000/svg">
<path d="M13.6084 2.90432L18.5871 6.10352e-05V1.57666L13.6914 4.48091L13.6084 2.90432Z" fill="white"/>
<path d="M0 10.5383L4.97872 7.63409V9.21069L0 12.1149V10.5383Z" fill="white"/>
<path d="M0 29.4575L4.97872 26.5533V28.1299L0 31.0341V29.4575Z" fill="white"/>
<path d="M0 14.1894L4.97872 11.2851V12.8617L0 15.7659V14.1894Z" fill="white"/>
<path d="M0 33.2746L4.97872 30.3703V31.9469L0 34.8512V33.2746Z" fill="white"/>
<path d="M0 17.6745L4.97872 14.7702V16.3468L0 19.2511V17.6745Z" fill="white"/>
<path d="M0 36.9255L4.97872 34.0212V35.5978L0 38.5021V36.9255Z" fill="white"/>
<path d="M13.6084 21.6574L18.5871 18.7532V20.3298L13.6914 23.234L13.6084 21.6574Z" fill="white"/>
<path d="M13.6084 6.22335L18.5871 3.31909V4.89569L13.6914 7.79994L13.6084 6.22335Z" fill="white"/>
<path d="M13.6084 25.4746L18.5871 22.5703V24.1469L13.6914 27.0512L13.6084 25.4746Z" fill="white"/>
<path d="M13.6084 9.70852L18.5871 6.80426V8.38086L13.6914 11.2851L13.6084 9.70852Z" fill="white"/>
<path d="M13.6084 29.2915L18.5871 26.3873V27.9639L13.6914 30.8681L13.6084 29.2915Z" fill="white"/>
<path d="M0.249023 21.0766L18.5873 10.3724V12.5298L0.249023 23.0681V21.0766Z" fill="white"/>
<path d="M0.249023 25.1426L18.5873 14.4384V16.5958L0.249023 27.1341V25.1426Z" fill="white"/>
<path fill-rule="evenodd" clip-rule="evenodd" d="M18.5874 6.10352e-05L36.8427 10.5384V15.932L32.03 18.8362L36.8427 21.7405V26.8852L31.3661 30.0384L37.0917 33.2745V39.0001L18.5874 28.1298V6.10352e-05ZM23.4001 14.0234V8.21492L31.8639 13.1107L26.9682 15.9319L23.4001 14.0234ZM23.4001 19.1681L31.698 23.9809L26.5533 27.3L23.4001 25.4745V19.1681Z" fill="white"/>
</svg>
