<svg width="20" height="21" viewBox="0 0 20 21" fill="none" xmlns="http://www.w3.org/2000/svg">
<path d="M19.8055 8.04717H19V8.00564H10V12.0085H15.6515C14.827 14.3386 12.6115 16.0113 10 16.0113C6.6865 16.0113 4 13.3229 4 10.007C4 6.69121 6.6865 4.00282 10 4.00282C11.5295 4.00282 12.921 4.58023 13.9805 5.52339L16.809 2.6929C15.023 1.02722 12.634 0 10 0C4.4775 0 0 4.48066 0 10.007C0 15.5334 4.4775 20.0141 10 20.0141C15.5225 20.0141 20 15.5334 20 10.007C20 9.33608 19.931 8.68112 19.8055 8.04717Z" fill="#FFC107"/>
<path d="M1.15295 5.34929L4.43845 7.7605C5.32745 5.55794 7.48045 4.00284 9.99995 4.00284C11.5295 4.00284 12.921 4.58024 13.9805 5.52341L16.809 2.69291C15.023 1.02723 12.634 0 9.99995 0C6.15895 0 2.82795 2.17004 1.15295 5.34929Z" fill="#FF3D00"/>
<path d="M10 20.0142C12.583 20.0142 14.93 19.025 16.7045 17.4164L13.6095 14.7956C12.5718 15.5853 11.3038 16.0125 10 16.0114C7.39903 16.0114 5.19053 14.3518 4.35853 12.0356L1.09753 14.5499C2.75253 17.7907 6.11353 20.0142 10 20.0142Z" fill="#4CAF50"/>
<path d="M19.8055 8.04739H19V8.00586H10V12.0086H15.6515C15.2571 13.1176 14.5467 14.0867 13.608 14.7961L13.6095 14.7951L16.7045 17.4159C16.4855 17.615 20 15.0107 20 10.0072C20 9.33628 19.931 8.68133 19.8055 8.04739Z" fill="#1976D2"/>
</svg>
